<svg width="256" height="255" viewBox="0 0 256 255" fill="none" xmlns="http://www.w3.org/2000/svg">
<rect x="0.969116" width="254.969" height="254.969" rx="48" fill="#FFEEDD"/>
<path d="M194.976 72.4752C163.046 78.2047 136.067 105.128 128.78 135.834C121.438 105.072 94.4587 77.871 62.3622 72.4752C60.5822 72.1971 58.969 73.5877 58.969 75.3678L59.1359 115.308C59.1359 116.976 60.5822 118.311 62.251 118.2C101.746 115.53 121.771 160.532 126.889 194.853C127 195.799 127.835 196.467 128.78 196.467C129.726 196.467 130.505 195.799 130.672 194.853C135.734 160.421 155.759 115.586 195.254 118.145C196.923 118.256 198.369 116.976 198.369 115.252V75.3678C198.369 73.5321 196.756 72.1971 194.976 72.4752Z" fill="#111514"/>
<path d="M129.337 59.6258L129.67 61.7952C131.117 71.0849 138.404 78.4276 147.749 79.8738L149.918 80.2076C150.753 80.3189 150.753 81.5426 149.918 81.7095L147.749 82.0433C138.459 83.4896 131.117 90.7766 129.67 100.122L129.337 102.291C129.225 103.126 128.002 103.126 127.835 102.291L127.501 100.122C126.055 90.8323 118.768 83.4896 109.422 82.0433L107.253 81.7095C106.418 81.5983 106.418 80.3745 107.253 80.2076L109.422 79.8738C118.712 78.4276 126.055 71.1405 127.501 61.7952L127.835 59.6258C127.946 58.7914 129.17 58.7914 129.337 59.6258Z" fill="#111514"/>
</svg>
