<svg width="575" height="214" viewBox="0 0 575 214" fill="none" xmlns="http://www.w3.org/2000/svg">
<path d="M317.158 68.5892L288.97 143.555H274.703L246.429 68.5892H259.571L281.793 130.931L304.102 68.5892H317.158Z" fill="#111514"/>
<path d="M323.556 73.9501C322.086 72.4802 321.308 70.578 321.308 68.3298C321.308 66.0817 322.086 64.2659 323.556 62.7095C325.026 61.1532 326.929 60.4614 329.177 60.4614C331.338 60.4614 333.154 61.2396 334.71 62.7095C336.18 64.1795 336.959 66.0817 336.959 68.3298C336.959 70.578 336.18 72.3938 334.71 73.9501C333.241 75.4201 331.338 76.1983 329.177 76.1983C326.929 76.1983 325.026 75.4201 323.556 73.9501ZM335.229 84.0667V143.469H322.951V84.0667H335.229Z" fill="#111514"/>
<path d="M389.357 86.0555C393.075 87.9577 395.929 90.8976 398.004 94.7021C400.079 98.5066 401.117 103.089 401.117 108.537V143.555H388.925V110.352C388.925 104.992 387.628 100.928 384.947 98.0742C382.267 95.2209 378.635 93.8374 374.053 93.8374C369.47 93.8374 365.838 95.2209 363.071 98.0742C360.391 100.928 359.008 104.992 359.008 110.352V143.555H346.729V84.0667H359.008V90.8976C360.996 88.4765 363.59 86.5742 366.703 85.1908C369.816 83.8073 373.188 83.1156 376.647 83.1156C381.489 83.1156 385.726 84.0667 389.357 86.0555Z" fill="#111514"/>
<path d="M411.925 97.6419C414.432 92.9727 417.805 89.4276 422.214 86.9201C426.624 84.4126 431.639 83.1156 437.346 83.1156C444.523 83.1156 450.489 84.8449 455.158 88.2171C459.827 91.6758 463.026 96.5179 464.669 102.83H451.44C450.402 99.89 448.673 97.5555 446.252 95.9126C443.917 94.2697 440.891 93.4051 437.259 93.4051C432.244 93.4051 428.18 95.2209 425.241 98.766C422.214 102.311 420.744 107.326 420.744 113.725C420.744 120.123 422.214 125.138 425.241 128.683C428.18 132.315 432.244 134.044 437.259 134.044C444.35 134.044 449.105 130.931 451.353 124.619H464.583C462.853 130.672 459.654 135.428 454.899 139.059C450.143 142.604 444.263 144.42 437.173 144.42C431.466 144.42 426.451 143.123 422.041 140.616C417.632 138.022 414.259 134.477 411.752 129.807C409.244 125.138 408.034 119.777 408.034 113.725C408.207 107.586 409.417 102.225 411.925 97.6419Z" fill="#111514"/>
<path d="M525.974 84.0667L489.485 171.397H476.774L488.88 142.518L465.447 84.0667H479.109L495.797 129.375L513.177 84.0667H525.974Z" fill="#111514"/>
<path d="M539.722 141.913C536.004 140.183 533.064 137.935 530.902 134.995C528.741 132.055 527.617 128.856 527.444 125.225H540.154C540.327 127.732 541.538 129.807 543.786 131.537C545.947 133.266 548.714 134.044 552 134.044C555.459 134.044 558.139 133.352 560.041 132.055C561.944 130.758 562.895 129.029 562.895 126.954C562.895 124.706 561.857 123.063 559.695 122.025C557.534 120.988 554.248 119.777 549.579 118.48C545.083 117.27 541.451 116.059 538.684 114.935C535.917 113.811 533.496 111.995 531.421 109.661C529.346 107.326 528.308 104.127 528.308 100.236C528.308 97.0367 529.259 94.1833 531.075 91.5893C532.977 88.9953 535.658 86.9201 539.117 85.3637C542.575 83.8938 546.639 83.1156 551.135 83.1156C557.88 83.1156 563.327 84.8449 567.477 88.2171C571.628 91.6758 573.789 96.2585 574.135 102.225H561.857C561.684 99.5442 560.56 97.469 558.658 95.8261C556.756 94.2697 554.075 93.4915 550.789 93.4915C547.59 93.4915 545.083 94.0968 543.353 95.3073C541.624 96.5179 540.759 98.1607 540.759 100.149C540.759 101.706 541.365 103.089 542.489 104.127C543.613 105.164 545.083 106.029 546.726 106.634C548.368 107.24 550.789 108.018 554.075 108.969C558.398 110.093 561.944 111.304 564.711 112.514C567.477 113.725 569.899 115.454 571.887 117.702C573.876 120.037 574.914 123.063 575 126.867C575 130.24 574.049 133.266 572.233 135.946C570.331 138.627 567.737 140.702 564.278 142.172C560.82 143.642 556.842 144.42 552.259 144.42C547.59 144.507 543.44 143.642 539.722 141.913Z" fill="#111514"/>
<path d="M211.41 20.9465C161.778 29.8525 119.842 71.7021 108.515 119.431C97.1015 71.6156 55.1654 29.3337 5.27444 20.9465C2.50752 20.5141 0 22.6758 0 25.4427L0.259399 87.5254C0.259399 90.1194 2.50752 92.1946 5.1015 92.0217C66.4925 87.8713 97.6203 157.822 105.575 211.172C105.748 212.642 107.045 213.68 108.515 213.68C109.985 213.68 111.195 212.642 111.455 211.172C119.323 157.649 150.451 87.9577 211.842 91.9352C214.436 92.1081 216.684 90.1194 216.684 87.4389V25.4427C216.684 22.5893 214.177 20.5141 211.41 20.9465Z" fill="#448B72"/>
<path d="M109.38 0.972744L109.899 4.34492C112.147 18.7848 123.474 30.1983 138 32.4464L141.372 32.9652C142.669 33.1382 142.669 35.0404 141.372 35.2998L138 35.8186C123.56 38.0667 112.147 49.3938 109.899 63.9201L109.38 67.2923C109.207 68.5893 107.305 68.5893 107.045 67.2923L106.526 63.9201C104.278 49.4803 92.9511 38.0667 78.4248 35.8186L75.0526 35.2998C73.7556 35.1269 73.7556 33.2246 75.0526 32.9652L78.4248 32.4464C92.8647 30.1983 104.278 18.8712 106.526 4.34492L107.045 0.972744C107.218 -0.324248 109.12 -0.324248 109.38 0.972744Z" fill="#111514"/>
</svg>
