<svg width="665" height="248" viewBox="0 0 665 248" fill="none" xmlns="http://www.w3.org/2000/svg">
<path d="M366.8 79.325L334.2 166.025H317.7L285 79.325H300.2L325.9 151.425L351.7 79.325H366.8Z" fill="#FFEEDD"/>
<path d="M374.2 85.525C372.5 83.825 371.6 81.625 371.6 79.025C371.6 76.425 372.5 74.325 374.2 72.525C375.9 70.725 378.1 69.925 380.7 69.925C383.2 69.925 385.3 70.825 387.1 72.525C388.8 74.225 389.7 76.425 389.7 79.025C389.7 81.625 388.8 83.725 387.1 85.525C385.4 87.225 383.2 88.125 380.7 88.125C378.1 88.125 375.9 87.225 374.2 85.525ZM387.7 97.225V165.925H373.5V97.225H387.7Z" fill="#FFEEDD"/>
<path d="M448.65 99.5249C452.95 101.725 456.25 105.125 458.65 109.525C461.05 113.925 462.25 119.225 462.25 125.525V166.025H448.15V127.625C448.15 121.425 446.65 116.725 443.55 113.425C440.45 110.125 436.25 108.525 430.95 108.525C425.65 108.525 421.45 110.125 418.25 113.425C415.15 116.725 413.55 121.425 413.55 127.625V166.025H399.35V97.2249H413.55V105.125C415.85 102.325 418.85 100.125 422.45 98.5249C426.05 96.9249 429.95 96.1249 433.95 96.1249C439.55 96.1249 444.45 97.2249 448.65 99.5249Z" fill="#FFEEDD"/>
<path d="M476.4 112.925C479.3 107.525 483.2 103.425 488.3 100.525C493.4 97.625 499.2 96.125 505.8 96.125C514.1 96.125 521 98.125 526.4 102.025C531.8 106.025 535.5 111.625 537.4 118.925H522.1C520.9 115.525 518.9 112.825 516.1 110.925C513.4 109.025 509.9 108.025 505.7 108.025C499.9 108.025 495.2 110.125 491.8 114.225C488.3 118.325 486.6 124.125 486.6 131.525C486.6 138.925 488.3 144.725 491.8 148.825C495.2 153.025 499.9 155.025 505.7 155.025C513.9 155.025 519.4 151.425 522 144.125H537.3C535.3 151.125 531.6 156.625 526.1 160.825C520.6 164.925 513.8 167.025 505.6 167.025C499 167.025 493.2 165.525 488.1 162.625C483 159.625 479.1 155.525 476.2 150.125C473.3 144.725 471.9 138.525 471.9 131.525C472.1 124.425 473.5 118.225 476.4 112.925Z" fill="#FFEEDD"/>
<path d="M608.3 97.225L566.1 198.225H551.4L565.4 164.825L538.3 97.225H554.1L573.4 149.625L593.5 97.225H608.3Z" fill="#FFEEDD"/>
<path d="M624.2 164.125C619.9 162.125 616.5 159.525 614 156.125C611.5 152.725 610.2 149.025 610 144.825H624.7C624.9 147.725 626.3 150.125 628.9 152.125C631.4 154.125 634.6 155.025 638.4 155.025C642.4 155.025 645.5 154.225 647.7 152.725C649.9 151.225 651 149.225 651 146.825C651 144.225 649.8 142.325 647.3 141.125C644.8 139.925 641 138.525 635.6 137.025C630.4 135.625 626.2 134.225 623 132.925C619.8 131.625 617 129.525 614.6 126.825C612.2 124.125 611 120.425 611 115.925C611 112.225 612.1 108.925 614.2 105.925C616.4 102.925 619.5 100.525 623.5 98.725C627.5 97.025 632.2 96.125 637.4 96.125C645.2 96.125 651.5 98.125 656.3 102.025C661.1 106.025 663.6 111.325 664 118.225H649.8C649.6 115.125 648.3 112.725 646.1 110.825C643.9 109.025 640.8 108.125 637 108.125C633.3 108.125 630.4 108.825 628.4 110.225C626.4 111.625 625.4 113.525 625.4 115.825C625.4 117.625 626.1 119.225 627.4 120.425C628.7 121.625 630.4 122.625 632.3 123.325C634.2 124.025 637 124.925 640.8 126.025C645.8 127.325 649.9 128.725 653.1 130.125C656.3 131.525 659.1 133.525 661.4 136.125C663.7 138.825 664.9 142.325 665 146.725C665 150.625 663.9 154.125 661.8 157.225C659.6 160.325 656.6 162.725 652.6 164.425C648.6 166.125 644 167.025 638.7 167.025C633.3 167.125 628.5 166.125 624.2 164.125Z" fill="#FFEEDD"/>
<path d="M244.5 24.225C187.1 34.525 138.6 82.925 125.5 138.125C112.3 82.825 63.8 33.925 6.1 24.225C2.9 23.725 0 26.225 0 29.425L0.3 101.225C0.3 104.225 2.9 106.625 5.9 106.425C76.9 101.625 112.9 182.525 122.1 244.225C122.3 245.925 123.8 247.125 125.5 247.125C127.2 247.125 128.6 245.925 128.9 244.225C138 182.325 174 101.725 245 106.325C248 106.525 250.6 104.225 250.6 101.125V29.425C250.6 26.125 247.7 23.725 244.5 24.225Z" fill="#FFEEDD"/>
<path d="M126.5 1.125L127.1 5.025C129.7 21.725 142.8 34.925 159.6 37.525L163.5 38.125C165 38.325 165 40.525 163.5 40.825L159.6 41.425C142.9 44.025 129.7 57.125 127.1 73.925L126.5 77.825C126.3 79.325 124.1 79.325 123.8 77.825L123.2 73.925C120.6 57.225 107.5 44.025 90.7 41.425L86.8 40.825C85.3 40.625 85.3 38.425 86.8 38.125L90.7 37.525C107.4 34.925 120.6 21.825 123.2 5.025L123.8 1.125C124 -0.375 126.2 -0.375 126.5 1.125Z" fill="#FFEEDD"/>
</svg>
